<svg xmlns="http://www.w3.org/2000/svg" viewBox="0 0 120 120" width="32" height="32" role="img" aria-label="KrakenOS">
  <title>KrakenOS</title>
  <g fill="none" stroke="#2563eb" stroke-width="3" stroke-linecap="round">
    <path d="M60,44 Q63,29 60,13"/>
    <path d="M73.9,52 Q88,42 99.8,37"/>
    <path d="M73.9,68 Q88,78 99.8,83"/>
    <path d="M60,76 Q57,91 60,107"/>
    <path d="M46.1,68 Q32,78 20.2,83"/>
    <path d="M46.1,52 Q32,42 20.2,37"/>
  </g>
  <g fill="#2563eb">
    <circle cx="60" cy="13" r="5"/>
    <circle cx="99.8" cy="37" r="5"/>
    <circle cx="99.8" cy="83" r="5"/>
    <circle cx="60" cy="107" r="5"/>
    <circle cx="20.2" cy="83" r="5"/>
    <circle cx="20.2" cy="37" r="5"/>
    <circle cx="60" cy="60" r="18"/>
  </g>
  <g fill="#ffffff">
    <circle cx="54" cy="57" r="4"/>
    <circle cx="66" cy="57" r="4"/>
  </g>
</svg>
